{
    "asset" : {
        "generator" : "Khronos glTF Blender I/O v0.9.36",
        "version" : "2.0"
    },
    "scene" : 0,
    "scenes" : [
        {
            "name" : "Scene",
            "nodes" : [
                0,
                1,
                4
            ]
        }
    ],
    "nodes" : [
        {
            "name" : "Light",
            "rotation" : [
                0.16907575726509094,
                0.27217137813568115,
                0.7558803558349609,
                0.570947527885437
            ],
            "translation" : [
                4.076245307922363,
                1.0054539442062378,
                5.903861999511719
            ]
        },
        {
            "camera" : 0,
            "name" : "Camera",
            "rotation" : [
                0.483536034822464,
                0.20870360732078552,
                0.33687159419059753,
                0.7804827094078064
            ],
            "translation" : [
                7.358891487121582,
                -6.925790786743164,
                4.958309173583984
            ]
        },
        {
            "mesh" : 0,
            "name" : "Rotor",
            "translation" : [
                0,
                1.4590938091278076,
                0.8173945546150208
            ]
        },
        {
            "mesh" : 1,
            "name" : "Rotor_Back",
            "translation" : [
                0,
                0.32552453875541687,
                -5.262073516845703
            ]
        },
        {
            "children" : [
                2,
                3
            ],
            "mesh" : 2,
            "name" : "Body",
            "rotation" : [
                0.7071080803871155,
                0,
                0,
                0.7071055173873901
            ],
            "translation" : [
                0,
                0.8405488729476929,
                1.38554847240448
            ]
        }
    ],
    "cameras" : [
        {
            "name" : "Camera",
            "perspective" : {
                "yfov" : 0.39959652046304894,
                "zfar" : 100,
                "znear" : 0.10000000149011612
            },
            "type" : "perspective"
        }
    ],
    "materials" : [
        {
            "doubleSided" : true,
            "name" : "PaletteTextureUltra",
            "pbrMetallicRoughness" : {
                "baseColorTexture" : {
                    "index" : 0,
                    "texCoord" : 0
                },
                "metallicFactor" : 0,
                "roughnessFactor" : 0.690034806728363
            }
        }
    ],
    "meshes" : [
        {
            "name" : "Cylinder.008",
            "primitives" : [
                {
                    "attributes" : {
                        "POSITION" : 0,
                        "NORMAL" : 1,
                        "TEXCOORD_0" : 2
                    },
                    "indices" : 3,
                    "material" : 0
                }
            ]
        },
        {
            "name" : "Cube.017",
            "primitives" : [
                {
                    "attributes" : {
                        "POSITION" : 4,
                        "NORMAL" : 5,
                        "TEXCOORD_0" : 6
                    },
                    "indices" : 7,
                    "material" : 0
                }
            ]
        },
        {
            "name" : "Cylinder.000",
            "primitives" : [
                {
                    "attributes" : {
                        "POSITION" : 8,
                        "NORMAL" : 9,
                        "TEXCOORD_0" : 10
                    },
                    "indices" : 11,
                    "material" : 0
                }
            ]
        }
    ],
    "textures" : [
        {
            "source" : 0
        }
    ],
    "images" : [
        {
            "bufferView" : 4,
            "mimeType" : "image/png",
            "name" : "PaletteTextureUltra"
        }
    ],
    "accessors" : [
        {
            "bufferView" : 0,
            "componentType" : 5126,
            "count" : 498,
            "max" : [
                5.372189521789551,
                0.04781046137213707,
                4.726101398468018
            ],
            "min" : [
                -2.8597195148468018,
                -1.243503451347351,
                -4.679279327392578
            ],
            "type" : "VEC3"
        },
        {
            "bufferView" : 1,
            "componentType" : 5126,
            "count" : 498,
            "type" : "VEC3"
        },
        {
            "bufferView" : 2,
            "componentType" : 5126,
            "count" : 498,
            "type" : "VEC2"
        },
        {
            "bufferView" : 3,
            "componentType" : 5123,
            "count" : 1032,
            "type" : "SCALAR"
        },
        {
            "bufferView" : 5,
            "componentType" : 5126,
            "count" : 166,
            "max" : [
                3.4496224543545395e-08,
                0.4452255666255951,
                0.3946553170681
            ],
            "min" : [
                -3.4546928873169236e-08,
                -0.26089343428611755,
                -0.39512109756469727
            ],
            "type" : "VEC3"
        },
        {
            "bufferView" : 6,
            "componentType" : 5126,
            "count" : 166,
            "type" : "VEC3"
        },
        {
            "bufferView" : 7,
            "componentType" : 5126,
            "count" : 166,
            "type" : "VEC2"
        },
        {
            "bufferView" : 8,
            "componentType" : 5123,
            "count" : 369,
            "type" : "SCALAR"
        },
        {
            "bufferView" : 9,
            "componentType" : 5126,
            "count" : 1677,
            "max" : [
                0.9768661260604858,
                1.9179426431655884,
                4.444602012634277
            ],
            "min" : [
                -0.9768686890602112,
                -1.3453177213668823,
                -6.099417686462402
            ],
            "type" : "VEC3"
        },
        {
            "bufferView" : 10,
            "componentType" : 5126,
            "count" : 1677,
            "type" : "VEC3"
        },
        {
            "bufferView" : 11,
            "componentType" : 5126,
            "count" : 1677,
            "type" : "VEC2"
        },
        {
            "bufferView" : 12,
            "componentType" : 5123,
            "count" : 5352,
            "type" : "SCALAR"
        }
    ],
    "bufferViews" : [
        {
            "buffer" : 0,
            "byteLength" : 5976,
            "byteOffset" : 0
        },
        {
            "buffer" : 0,
            "byteLength" : 5976,
            "byteOffset" : 5976
        },
        {
            "buffer" : 0,
            "byteLength" : 3984,
            "byteOffset" : 11952
        },
        {
            "buffer" : 0,
            "byteLength" : 2064,
            "byteOffset" : 15936
        },
        {
            "buffer" : 0,
            "byteLength" : 214969,
            "byteOffset" : 18000
        },
        {
            "buffer" : 0,
            "byteLength" : 1992,
            "byteOffset" : 232972
        },
        {
            "buffer" : 0,
            "byteLength" : 1992,
            "byteOffset" : 234964
        },
        {
            "buffer" : 0,
            "byteLength" : 1328,
            "byteOffset" : 236956
        },
        {
            "buffer" : 0,
            "byteLength" : 738,
            "byteOffset" : 238284
        },
        {
            "buffer" : 0,
            "byteLength" : 20124,
            "byteOffset" : 239024
        },
        {
            "buffer" : 0,
            "byteLength" : 20124,
            "byteOffset" : 259148
        },
        {
            "buffer" : 0,
            "byteLength" : 13416,
            "byteOffset" : 279272
        },
        {
            "buffer" : 0,
            "byteLength" : 10704,
            "byteOffset" : 292688
        }
    ],
    "buffers" : [
        {
            "byteLength" : 303392,
            "uri" : "data:application/octet-stream;base64,"
        }
    ]
}
